<?xml version="1.0" encoding="utf-8"?>
<!-- Generator: Adobe Illustrator 15.0.2, SVG Export Plug-In . SVG Version: 6.00 Build 0)  -->
<!DOCTYPE svg PUBLIC "-//W3C//DTD SVG 1.1//EN" "http://www.w3.org/Graphics/SVG/1.1/DTD/svg11.dtd">
<svg version="1.1" id="Шар_1" xmlns="http://www.w3.org/2000/svg" xmlns:xlink="http://www.w3.org/1999/xlink" x="0px" y="0px"
	 width="20px" height="20px" viewBox="0 0 20 20" enable-background="new 0 0 20 20" xml:space="preserve">
<path id="Фігура-36" fill="#E78E46" d="M5.923,2.964c0,0,6.134,2.036,9.981,11.039l-9.877,1.931L5.923,2.964z"/>
<path id="Фігура-7-копія-3" fill="#808080" d="M9.911,18.875c-4.936,0-8.937-4.002-8.937-8.938S4.975,1,9.911,1
	c4.937,0,8.938,4.001,8.938,8.937S14.848,18.875,9.911,18.875z M9.937,2.071c-4.344,0-7.866,3.522-7.866,7.866
	c0,4.344,3.522,7.866,7.866,7.866c4.344,0,7.868-3.521,7.868-7.866C17.805,5.593,14.281,2.071,9.937,2.071z M10.064,15.936
	c-3.304,0-5.982-2.679-5.982-5.982c0-3.304,2.678-5.983,5.982-5.983c3.304,0,5.982,2.679,5.982,5.983
	C16.046,13.257,13.368,15.936,10.064,15.936z M10.082,4.687c-2.908,0-5.266,2.358-5.266,5.266s2.358,5.266,5.266,5.266
	s5.266-2.357,5.266-5.266S12.99,4.687,10.082,4.687z M9.909,12.986c-1.685,0-3.051-1.364-3.051-3.049c0-1.684,1.366-3.05,3.051-3.05
	c1.685,0,3.05,1.366,3.05,3.05C12.959,11.622,11.594,12.986,9.909,12.986z M9.916,7.58c-1.302,0-2.357,1.055-2.357,2.357
	c0,1.301,1.055,2.358,2.357,2.358c1.303,0,2.357-1.057,2.357-2.358C12.273,8.635,11.219,7.58,9.916,7.58z"/>
</svg>
